<?xml version="1.0" standalone="no"?>
<!DOCTYPE svg PUBLIC "-//W3C//DTD SVG 20010904//EN"
 "http://www.w3.org/TR/2001/REC-SVG-20010904/DTD/svg10.dtd">
<svg version="1.0" xmlns="http://www.w3.org/2000/svg"
 width="200.000000pt" height="200.000000pt" viewBox="0 0 200.000000 200.000000"
 preserveAspectRatio="xMidYMid meet">
<metadata>
Created by potrace 1.16, written by Peter Selinger 2001-2019
</metadata>
<g transform="translate(0.000000,200.000000) scale(0.100000,-0.100000)"
fill="#000000" stroke="none">
<path d="M577 1714 c-204 -49 -373 -205 -444 -411 -22 -65 -27 -95 -27 -183 0
-121 16 -187 72 -295 47 -90 189 -235 287 -292 139 -82 301 -110 454 -79 76
16 191 58 191 70 0 18 -36 76 -44 72 -181 -82 -329 -91 -477 -31 -53 21 -149
80 -149 91 0 2 22 -7 48 -20 103 -52 246 -70 364 -45 64 14 163 58 198 88 15
13 -4 6 -50 -18 -198 -105 -418 -90 -591 39 -104 78 -159 201 -159 355 0 144
53 268 160 375 114 114 254 167 415 157 163 -10 278 -66 351 -174 59 -86 85
-162 94 -268 7 -90 14 -84 11 10 -3 64 -26 148 -57 204 -32 59 -25 62 15 6 60
-84 101 -204 101 -298 0 -44 39 -167 53 -167 31 0 39 204 12 310 -30 115 -79
195 -190 306 -84 84 -114 108 -185 142 -47 23 -112 49 -145 57 -73 19 -230 18
-308 -1z m303 -10 c61 -14 205 -77 215 -94 3 -4 -28 5 -68 21 -177 68 -367 56
-542 -34 -89 -46 -212 -174 -259 -268 -81 -165 -86 -354 -12 -515 29 -63 19
-64 -18 0 -48 82 -78 192 -79 291 -2 108 13 175 61 275 45 94 156 210 253 263
128 72 304 95 449 61z"/>
</g>
</svg>
